<?xml version="1.0" encoding="UTF-8" standalone="no"?><svg xmlns:android="http://schemas.android.com/apk/res/android" height="512" width="512" xmlns="http://www.w3.org/2000/svg">
  <path d="M124.543,213.383c-29.855,-16.683 -59.318,-76.647 -4.665,-146.629s129.966,-64.65 155.293,-37.99s18.005,63.554 0,77.314c-22.986,17.565 -39.567,6.205 -60.116,28.497c-20.884,22.654 -7.02,47.589 -28.348,70.917C170.755,222.937 147.204,226.046 124.543,213.383z" fill="#B74A00"/>
  <path d="M298.608,239.107c16.683,-29.855 76.647,-59.318 146.629,-4.665s64.65,129.965 37.99,155.293c-26.66,25.326 -63.554,18.005 -77.314,0c-17.565,-22.986 -6.205,-39.567 -28.496,-60.116c-22.654,-20.884 -47.589,-7.02 -70.917,-28.348C289.055,285.319 285.944,261.767 298.608,239.107z" fill="#B74A00"/>
  <path d="M213.391,466.295c-16.683,29.855 -76.647,59.318 -146.629,4.665s-64.65,-129.966 -37.99,-155.293s63.554,-18.005 77.314,0c17.565,22.986 6.205,39.567 28.497,60.116c22.654,20.884 47.589,7.02 70.917,28.348C222.944,420.082 226.054,443.634 213.391,466.295z" fill="#B74A00"/>
  <path d="M152.291,231.587c-10.754,0 -21.948,-2.995 -32.844,-9.083c-18.799,-10.505 -33.59,-32.458 -38.601,-57.292c-4.788,-23.729 -3.331,-61.188 30.798,-104.89C150.512,10.55 194.944,1.249 217.969,0.134c26.591,-1.284 50.804,6.726 64.777,21.433c13.801,14.527 20.558,33.124 19.029,52.366c-1.323,16.642 -8.896,31.762 -20.261,40.446c-12.341,9.431 -23.095,11.769 -32.582,13.832c-10.022,2.18 -17.263,3.754 -26.196,13.443c-8.221,8.918 -9.663,18.461 -11.333,29.51c-1.934,12.8 -4.126,27.309 -16.986,41.375C182.905,225.133 168.074,231.586 152.291,231.587zM223.459,20.899c-1.483,0 -2.977,0.037 -4.48,0.109c-19.453,0.941 -57.125,8.972 -90.867,52.178c-29.239,37.442 -30.703,68.464 -26.783,87.895c4.593,22.762 18.121,37.488 28.311,43.182l0,0c18.248,10.198 36.699,8.02 49.355,-5.822c8.571,-9.375 10.042,-19.116 11.747,-30.396c1.907,-12.621 4.069,-26.926 16.63,-40.552c13.407,-14.542 26.005,-17.283 37.12,-19.7c8.421,-1.831 15.692,-3.413 24.335,-10.017c6.628,-5.063 11.27,-14.834 12.117,-25.497c1.053,-13.251 -3.687,-26.149 -13.348,-36.317C258.618,26.51 241.983,20.899 223.459,20.899z" fill="#000000" fill-opacity="1.0"/>
  <path d="M145.491,100.24c-2.249,0 -4.514,-0.723 -6.424,-2.214c-4.548,-3.551 -5.356,-10.118 -1.804,-14.666c26.013,-33.31 61.507,-52.235 97.252,-51.916c5.771,0.051 10.407,4.77 10.356,10.541c-0.051,5.771 -4.804,10.424 -10.541,10.356c-29.232,-0.262 -58.617,15.736 -80.597,43.881C151.673,98.861 148.597,100.24 145.491,100.24z" fill="#000000" fill-opacity="1.0"/>
  <path d="M129.926,126.473c-2.079,0 -4.179,-0.62 -6.009,-1.908c-4.718,-3.324 -5.847,-9.842 -2.523,-14.56l0.174,-0.247c3.324,-4.717 9.842,-5.846 14.56,-2.523c4.718,3.324 5.847,9.842 2.523,14.56l-0.174,0.247C136.443,124.929 133.209,126.473 129.926,126.473z" fill="#000000" fill-opacity="1.0"/>
  <path d="M443.4,416.551c-1.773,0 -3.555,-0.07 -5.342,-0.212c-16.642,-1.323 -31.762,-8.896 -40.446,-20.261c-9.431,-12.341 -11.769,-23.095 -13.832,-32.582c-2.18,-10.022 -3.754,-17.263 -13.443,-26.196c-8.917,-8.221 -18.46,-9.663 -29.51,-11.333c-12.8,-1.934 -27.309,-4.126 -41.375,-16.986c-21.171,-19.357 -24.99,-48.085 -9.964,-74.972c10.505,-18.799 32.458,-33.59 57.292,-38.601c23.729,-4.787 61.188,-3.33 104.89,30.798c49.772,38.87 59.074,83.301 60.188,106.326c1.287,26.59 -6.726,50.805 -21.433,64.777C477.246,409.827 460.72,416.551 443.4,416.551zM366.992,214.309c-5.992,0 -11.375,0.633 -16.081,1.583c-22.762,4.593 -37.488,18.121 -43.182,28.311l0,0c-10.198,18.248 -8.02,36.699 5.822,49.355c9.375,8.571 19.116,10.042 30.396,11.747c12.621,1.907 26.926,4.069 40.552,16.63c14.542,13.407 17.283,26.005 19.7,37.12c1.831,8.421 3.413,15.692 10.017,24.335c5.063,6.628 14.834,11.27 25.497,12.117c13.25,1.054 26.149,-3.687 36.317,-13.348c10.206,-9.695 15.935,-28.324 14.954,-48.616c-0.941,-19.453 -8.972,-57.125 -52.178,-90.867C410.433,220.518 385.742,214.309 366.992,214.309zM298.608,239.107h0.01H298.608z" fill="#000000" fill-opacity="1.0"/>
  <path d="M470.101,359.434c-0.031,0 -0.063,0 -0.094,0c-5.771,-0.051 -10.407,-4.77 -10.356,-10.541c0.259,-29.239 -15.736,-58.616 -43.881,-80.597c-4.548,-3.552 -5.356,-10.118 -1.804,-14.666c3.551,-4.548 10.118,-5.355 14.666,-1.804c33.31,26.013 52.233,61.46 51.916,97.252C480.496,354.817 475.827,359.434 470.101,359.434z" fill="#000000" fill-opacity="1.0"/>
  <path d="M396.206,255.122c-2.079,0 -4.179,-0.62 -6.009,-1.908l-0.247,-0.174c-4.718,-3.324 -5.847,-9.842 -2.523,-14.56c3.324,-4.717 9.842,-5.846 14.56,-2.523l0.247,0.174c4.718,3.324 5.847,9.842 2.523,14.56C402.721,253.579 399.489,255.122 396.206,255.122z" fill="#000000" fill-opacity="1.0"/>
  <path d="M144.917,512c-22.589,0.001 -51.832,-7.225 -84.587,-32.805c-49.771,-38.87 -59.073,-83.301 -60.188,-106.326c-1.287,-26.59 6.726,-50.805 21.433,-64.777c14.527,-13.8 33.119,-20.555 52.366,-19.029c16.642,1.323 31.762,8.896 40.446,20.261c9.431,12.341 11.769,23.095 13.832,32.582c2.18,10.022 3.754,17.263 13.443,26.196c8.917,8.221 18.46,9.663 29.51,11.333c12.8,1.934 27.309,4.126 41.375,16.986c21.171,19.357 24.99,48.085 9.964,74.972l0,0c-10.506,18.799 -32.459,33.59 -57.292,38.6C159.277,511.193 152.467,512 144.917,512zM68.66,309.75c-11.963,0 -23.452,4.715 -32.692,13.492c-10.206,9.695 -15.935,28.324 -14.954,48.616c0.941,19.453 8.972,57.125 52.178,90.867c37.441,29.24 68.461,30.702 87.894,26.783c22.762,-4.593 37.489,-18.121 43.183,-28.312l0,0c10.198,-18.247 8.02,-36.699 -5.822,-49.355c-9.375,-8.571 -19.116,-10.042 -30.396,-11.747c-12.621,-1.907 -26.926,-4.069 -40.552,-16.63c-14.542,-13.407 -17.283,-26.005 -19.7,-37.12c-1.831,-8.421 -3.413,-15.692 -10.017,-24.335c-5.063,-6.628 -14.834,-11.27 -25.497,-12.117C71.074,309.798 69.863,309.75 68.66,309.75zM213.391,466.295h0.01H213.391z" fill="#000000" fill-opacity="1.0"/>
  <path d="M89.792,455.79c-2.249,0 -4.514,-0.723 -6.424,-2.214c-33.31,-26.013 -52.233,-61.46 -51.916,-97.252c0.05,-5.771 4.745,-10.417 10.541,-10.356c5.771,0.051 10.407,4.77 10.356,10.541c-0.259,29.239 15.736,58.616 43.881,80.597c4.548,3.551 5.356,10.118 1.804,14.666C95.974,454.409 92.898,455.79 89.792,455.79z" fill="#000000" fill-opacity="1.0"/>
  <path d="M116.022,471.352c-2.079,0 -4.179,-0.62 -6.009,-1.908l-0.247,-0.174c-4.718,-3.324 -5.847,-9.842 -2.523,-14.56c3.324,-4.717 9.843,-5.846 14.56,-2.523l0.247,0.174c4.718,3.324 5.847,9.842 2.523,14.56C122.538,469.809 119.305,471.352 116.022,471.352z" fill="#000000" fill-opacity="1.0"/>
</svg>