<?xml version="1.0" encoding="UTF-8" standalone="no"?><svg xmlns:android="http://schemas.android.com/apk/res/android" height="512" width="512" xmlns="http://www.w3.org/2000/svg">
  <path d="m440,464 l-16,-24s8,-24 8,-128c0,-36.878 -24,-160 -24,-160h-368s-24,123.122 -24,160c0,104 8,128 8,128l-16,24c0,14.7 15.472,22.575 28.622,16 0,0 107.378,24 187.378,24s187.378,-24 187.378,-24c13.15,6.575 28.622,-1.3 28.622,-16z" fill="#a1887f"/>
  <path d="m432,312c0,-31.2 -17.177,-124.124 -22.467,-152h-43.391c-18.561,155.193 -125.982,283.07 -269.927,331.326 37.424,6.216 86.285,12.674 127.785,12.674 80,0 187.378,-24 187.378,-24 13.15,6.575 28.622,-1.3 28.622,-16l-16,-24s8,-24 8,-128z" fill="#9c7b70"/>
  <path d="m224,8c-65.739,0 -168,128 -168,128h336s-102.261,-128 -168,-128z" fill="#ffead2"/>
  <path d="M24,136L424,136A16,16 0,0 1,440 152L440,152A16,16 0,0 1,424 168L24,168A16,16 0,0 1,8 152L8,152A16,16 0,0 1,24 136z" fill="#bcaaa4"/>
  <path d="M24,168L424,168A16,16 0,0 1,440 184L440,184A16,16 0,0 1,424 200L24,200A16,16 0,0 1,8 184L8,184A16,16 0,0 1,24 168z" fill="#bcaaa4"/>
  <path d="m282.027,30.641a184.264,184.264 0,0 1,-74.32 105.359h184.293s-54.811,-68.6 -109.973,-105.359z" fill="#faddc3"/>
  <path d="M192,48m-16,0a16,16 0,1 1,32 0a16,16 0,1 1,-32 0" fill="#fff7f0"/>
  <path d="M216,80m-8,0a8,8 0,1 1,16 0a8,8 0,1 1,-16 0" fill="#fff7f0"/>
  <path d="M48,240m-16,0a16,16 0,1 1,32 0a16,16 0,1 1,-32 0" fill="#bcaaa4"/>
  <path d="M72,272m-8,0a8,8 0,1 1,16 0a8,8 0,1 1,-16 0" fill="#bcaaa4"/>
  <path d="m490.851,273.4c13.241,-17.6 13.106,-41.4 13.106,-41.4s-28.8,-0.168 -46.464,17.493c-0.514,0.514 -1.009,1.039 -1.493,1.571v-7.152c7.594,-0.9 16.33,-3.39 22.485,-9.545 13.255,-13.254 9.515,-38.485 9.515,-38.485s-19.823,-2.929 -33.558,5.638a45.577,45.577 0,0 0,1.558 -11.579c0,-20.954 -16,-37.941 -16,-37.941s-16,16.987 -16,37.941a45.589,45.589 0,0 0,1.568 11.617c-13.731,-8.593 -33.589,-5.654 -33.589,-5.654s-3.745,25.225 9.5,38.474c6.163,6.163 14.916,8.647 22.518,9.543v7.188q-0.745,-0.821 -1.536,-1.616c-17.661,-17.661 -46.461,-17.493 -46.461,-17.493s-0.135,23.8 13.106,41.395a76.672,76.672 0,0 0,-13.106 -1.395s-0.134,23.843 13.145,41.445a76.753,76.753 0,0 0,-13.145 -1.4s-0.136,23.753 13.067,41.345a76.725,76.725 0,0 0,-13.067 -1.39s-0.168,28.8 17.493,46.464c15.186,15.185 38.591,17.188 44.859,17.452a16.308,16.308 0,0 0,1.648 0.084,16.082 16.082,0 0,0 1.665,-0.087c6.356,-0.274 29.661,-2.312 44.8,-17.449 17.66,-17.664 17.492,-46.464 17.492,-46.464a76.725,76.725 0,0 0,-13.067 1.388c13.2,-17.592 13.067,-41.345 13.067,-41.345a76.753,76.753 0,0 0,-13.145 1.4c13.279,-17.6 13.145,-41.443 13.145,-41.443a76.672,76.672 0,0 0,-13.106 1.4z" fill="#ffead2"/>
  <path d="m427.762,342.464a76.655,76.655 0,0 0,-10.945 7.271c3.575,-21.7 -7.526,-42.7 -7.526,-42.7a76.735,76.735 0,0 0,-11.008 7.32c3.639,-21.747 -7.5,-42.828 -7.5,-42.828a76.8,76.8 0,0 0,-10.977 7.3c3.607,-21.725 -7.514,-42.765 -7.514,-42.765a82.209,82.209 0,0 0,-23.832 19.938h-0.445a27.749,27.749 0,0 0,2.783 -6.071c5.626,-17.881 -9.354,-38.525 -9.354,-38.525s-18.932,6.566 -27.151,20.512a45.572,45.572 0,0 0,-3.971 -10.988c-9.686,-18.581 -31.727,-26.247 -31.727,-26.247s-6.335,22.459 3.351,41.04a45.523,45.523 0,0 0,6.762 9.576c-16.149,-1.272 -32.4,10.514 -32.4,10.514s8.34,24.1 26.213,29.723a30.9,30.9 0,0 0,13.479 0.92v0.622c-19.605,-1.149 -37.174,8.129 -37.174,8.129s10.881,21.165 30.756,30.648a76.71,76.71 0,0 0,-12.266 4.822s10.9,21.2 30.815,30.674a76.673,76.673 0,0 0,-12.3 4.834s10.86,21.125 30.7,30.621a76.688,76.688 0,0 0,-12.229 4.81s13.166,25.618 36.991,33.115 49.288,-5.967 49.288,-5.967 25.656,-13.185 33.153,-37.01 -5.972,-49.288 -5.972,-49.288z" fill="#ffead2"/>
  <path d="m390.449,476.17c-37.466,7.405 -108.909,19.83 -166.449,19.83 -83.681,0 -183.147,-27.058 -190.956,-23.156 -7.029,3.512 -15.494,0.569 -16.853,-6.708 29.488,-47.76 7.809,17.678 7.809,-154.136 0,-13.035 3.318,-40.253 9.6,-78.711a8,8 0,1 0,-15.791 -2.578c-6.509,39.857 -9.809,67.207 -9.809,81.289 0,83.121 5.143,116.064 7.391,126.491l-14.047,21.072c-3.368,5.054 -0.738,19.486 10.9,26.678a28.329,28.329 0,0 0,25.2 2.13c147.206,31.9 225.67,29.277 356.109,3.5a8,8 0,1 0,-3.1 -15.7z" fill="#000000" fill-opacity="1.0"/>
  <path d="m24,208h184a8,8 0,0 0,0 -16h-184a8,8 0,0 1,0 -16h64a8,8 0,0 0,0 -16h-64a8,8 0,0 1,0 -16h344a8,8 0,0 0,0 -16h-344c-20.8,0 -31.6,24.683 -17.874,40 -13.718,15.309 -2.94,40 17.874,40z" fill="#000000" fill-opacity="1.0"/>
  <path d="m89.728,109.427c55.623,-60.247 103.308,-93.427 134.272,-93.427s78.649,33.18 134.272,93.427a8,8 0,0 0,11.756 -10.854c-41.517,-44.973 -100.552,-98.573 -146.028,-98.573s-104.511,53.6 -146.028,98.573a8,8 0,0 0,11.756 10.854z" fill="#000000" fill-opacity="1.0"/>
  <path d="m152,160a8,8 0,0 0,0 16h72a8,8 0,0 0,0 -16z" fill="#000000" fill-opacity="1.0"/>
  <path d="M120,168m-8,0a8,8 0,1 1,16 0a8,8 0,1 1,-16 0" fill="#000000" fill-opacity="1.0"/>
  <path d="M184,72m-8,0a8,8 0,1 1,16 0a8,8 0,1 1,-16 0" fill="#000000" fill-opacity="1.0"/>
  <path d="M208,40m-8,0a8,8 0,1 1,16 0a8,8 0,1 1,-16 0" fill="#000000" fill-opacity="1.0"/>
  <path d="M224,64m-8,0a8,8 0,1 1,16 0a8,8 0,1 1,-16 0" fill="#000000" fill-opacity="1.0"/>
  <path d="M248,48m-8,0a8,8 0,1 1,16 0a8,8 0,1 1,-16 0" fill="#000000" fill-opacity="1.0"/>
  <path d="M264,80m-8,0a8,8 0,1 1,16 0a8,8 0,1 1,-16 0" fill="#000000" fill-opacity="1.0"/>
  <path d="M296,104m-8,0a8,8 0,1 1,16 0a8,8 0,1 1,-16 0" fill="#000000" fill-opacity="1.0"/>
  <path d="M240,104m-8,0a8,8 0,1 1,16 0a8,8 0,1 1,-16 0" fill="#000000" fill-opacity="1.0"/>
  <path d="M200,104m-8,0a8,8 0,1 1,16 0a8,8 0,1 1,-16 0" fill="#000000" fill-opacity="1.0"/>
  <path d="M152,104m-8,0a8,8 0,1 1,16 0a8,8 0,1 1,-16 0" fill="#000000" fill-opacity="1.0"/>
  <path d="m511.96,271.993a8,8 0,0 0,-6.719 -7.841,90.193 90.193,0 0,0 6.719,-32.159 8,8 0,0 0,-7.953 -7.953,81.233 81.233,0 0,0 -10.746,0.9c3.692,-10.768 3.787,-25.682 2.477,-30.938 0.5,-1.935 0.164,-0.277 0.262,-42a8,8 0,0 0,-16 0v35.452a70.416,70.416 0,0 0,-16.017 1.767c-0.294,-18.748 -11.208,-34.239 -15.983,-40.129v-37.092a8,8 0,0 0,-16 0v37.09c-4.777,5.892 -15.7,21.393 -15.983,40.15a70.4,70.4 0,0 0,-16.017 -1.769v-35.471a8,8 0,0 0,-16 0c0.1,41.584 -0.224,40.083 0.254,41.969 -1.017,3.961 -1.726,18.758 2.448,30.957 -7.242,-1.049 -15.225,-2.642 -18.057,3.964a79.88,79.88 0,0 0,-9.275 5.837c-1.714,-11.227 -8.53,-24.5 -12.132,-28.554 -0.454,-1.946 0.017,-0.323 -19.222,-37.345a8,8 0,0 0,-14.181 7.41l16.422,31.42a70.433,70.433 0,0 0,-13.378 8.985c-8.943,-16.478 -25.791,-25.153 -32.751,-28.161l-17.18,-32.872a8,8 0,0 0,-14.18 7.411l17.179,32.87c-1.5,7.433 -4,26.226 4.428,42.981a70.132,70.132 0,0 0,-15.013 5.853l-16.427,-31.431a8,8 0,0 0,-14.181 7.41c19.482,37.061 18.339,35.586 19.663,37.069 0.99,4.238 7.37,17.632 16.513,26.312a78.4,78.4 0,0 0,-9.939 4.192,8 8,0 0,0 -3.365,10.733 90.263,90.263 0,0 0,20.846 25.39,8 8,0 0,0 -2.319,10.059 90.283,90.283 0,0 0,20.885 25.425,7.994 7.994,0 0,0 -2.334,10.068 90.246,90.246 0,0 0,20.811 25.362,8 8,0 0,0 -2.305,10.048c0.6,1.167 15.029,28.671 41.744,37.046 15.533,4.87 32.952,2.472 48.084,-3.346 38.958,74.542 36.038,69.724 38.144,71.311a7.979,7.979 0,0 0,11.665 -2.253c2.484,-4.117 0.458,-3.9 1.153,-84.657 10.816,-1.249 30.236,-5.416 44.121,-19.3 19.8,-19.8 19.843,-50.855 19.836,-52.168a8,8 0,0 0,-6.7 -7.838,90.187 90.187,0 0,0 6.7,-32.115 8,8 0,0 0,-6.737 -7.844,90.235 90.235,0 0,0 6.74,-32.205zM431.167,287.212c-9.548,-11.265 -22.984,-17.751 -37.333,-20.962 -5.586,-8.542 -8.006,-18.471 -9.046,-25.419 27.544,4.128 42.248,18.802 46.379,46.381zM431.174,327.261c-9.524,-11.24 -22.944,-17.744 -37.315,-20.967 -5.6,-8.553 -8.03,-18.5 -9.071,-25.463 27.581,4.134 42.272,18.848 46.386,46.43zM431.159,367.197c-9.523,-11.236 -22.964,-17.74 -37.358,-20.954 -5.57,-8.539 -7.982,-18.456 -9.017,-25.391 28.041,4.148 42.307,19.313 46.375,46.348zM322.621,233.691c4.257,-5.646 10.783,-9.7 15.486,-12.09 9.36,17.624 4.412,24.875 4.576,28.713a59.372,59.372 0,0 0,-12.67 25.972l-8,-15.313a77.5,77.5 0,0 0,0.608 -27.282zM284.591,206.641c17.252,10.089 24.345,23.622 22.775,43.578 -17.253,-10.087 -24.343,-23.619 -22.775,-43.578zM266.308,259.146c4.662,-2.5 11.732,-5.555 18.805,-5.815a77.507,77.507 0,0 0,22.711 15.044l8.032,15.368a59.407,59.407 0,0 0,-28.6 -4.454c-2.909,-2.212 -11.81,-2.358 -20.948,-20.143zM307.676,370.011c8.456,-2.923 22.225,-6.118 35.023,-2.105a8,8 0,1 0,4.787 -15.267c-13.9,-4.357 -28.009,-2.563 -38.524,0.245 -8.942,-4.99 -15.709,-12.7 -19.854,-18.39 10.793,-3.757 23.734,-5.626 35.043,-2.075a8,8 0,1 0,4.791 -15.266c-13.912,-4.366 -28.041,-2.566 -38.561,0.247 -8.915,-4.99 -15.663,-12.68 -19.8,-18.357 8.419,-2.93 22.149,-6.122 35.046,-2.072 20.258,6.344 32.2,28.887 32.317,29.115a7.942,7.942 0,0 0,0.413 0.708c6.986,11.229 7.381,19.8 15.2,19.8a8.011,8.011 0,0 0,7.083 -11.708c-2.49,-6.264 -22.179,-33.1 -13.941,-59.381 4.239,-13.534 15.706,-23.35 22.923,-28.416a86.34,86.34 0,0 0,5.092 17.068,7.994 7.994,0 0,0 -6.714,7.84 90.3,90.3 0,0 0,6.732 32.207,8 8,0 0,0 -6.732,7.839 90.243,90.243 0,0 0,6.7 32.115,8 8,0 0,0 -6.7,7.842c-0.006,1.122 0.039,23.956 12.4,42.929 -16.11,-10.476 -33.91,-11.729 -53,-6.617 -8.872,-4.982 -15.595,-12.638 -19.724,-18.301zM326.167,405.4c11.1,-3.864 23.83,-5.6 35.042,-2.08 12.815,4.018 22.3,14.521 27.572,21.747 -26.138,9.086 -46.095,2.983 -62.614,-19.667zM384.791,360.838c27.553,4.129 42.24,18.793 46.376,46.375 -27.554,-4.133 -42.241,-18.797 -46.376,-46.379zM432,471.419c-23.744,-45.169 -24.42,-48.279 -31.917,-57.969 11.57,6.652 24.039,9.114 31.917,10.02zM432,248.219a59.421,59.421 0,0 0,-23.288 -17.2c-1.559,-3.317 -9.374,-7.559 -9.236,-27.554 5.284,-0.049 12.969,0.512 19.361,3.557a77.51,77.51 0,0 0,13.163 23.855zM440,214.57c-10.618,-16.929 -10.632,-32.212 0,-49.169 10.617,16.929 10.633,32.209 0,49.167zM448,230.879a77.484,77.484 0,0 0,13.175 -23.89c6.376,-3.022 14.017,-3.58 19.3,-3.543 0.195,20.22 -7.5,23.911 -9.219,27.573a59.34,59.34 0,0 0,-23.256 17.138zM448.791,407.211c4.128,-27.55 18.793,-42.243 46.375,-46.375 -4.128,27.547 -18.793,42.241 -46.375,46.373zM486.158,346.233c-14.447,3.231 -27.864,9.764 -37.357,20.963 4.066,-27.028 18.287,-42.108 46.37,-46.315 -1.038,6.931 -3.452,16.827 -9.013,25.35zM486.091,306.298c-14.23,3.192 -27.727,9.648 -37.3,20.955 4.07,-27.281 18.48,-42.241 46.384,-46.421 -1.046,6.961 -3.475,16.912 -9.084,25.468zM486.112,266.26c-14.411,3.224 -27.811,9.726 -37.318,20.945 4.127,-27.548 18.8,-42.242 46.377,-46.373 -1.041,6.951 -3.465,16.885 -9.059,25.426z" fill="#000000" fill-opacity="1.0"/>
</svg>