<?xml version="1.0" encoding="UTF-8" standalone="no"?><svg xmlns:aapt="http://schemas.android.com/aapt" xmlns:android="http://schemas.android.com/apk/res/android" height="512" width="512" xmlns="http://www.w3.org/2000/svg">
  <path d="m512,256c0,141.387 -114.613,256 -256,256s-256,-114.613 -256,-256 114.613,-256 256,-256 256,114.613 256,256zM512,256">
    <aapt:attr name="android:fillColor" xmlns:aapt="http://www.w3.org/2000/svg">
      <gradient android:endX="512" android:endY="256" android:startX="0" android:startY="256" android:type="linear">
        <item android:color="#FF00F38D" android:offset="0"/>
        <item android:color="#FF009EFF" android:offset="1"/>
      </gradient>
    </aapt:attr>
  </path>
  <path d="m380.859,197.07c0,-20.008 -15.164,-36.531 -34.598,-38.703 1.117,-3.59 1.719,-7.402 1.719,-11.355 0,-32.902 -32.973,-55.984 -36.73,-58.508l-17.184,-11.793 -3.586,20.379c-0.199,0.887 -2.879,12.027 -9.84,12.027h-78.73c-20.895,0 -37.891,17 -37.891,37.895 0,3.953 0.609,7.766 1.738,11.352 -19.445,2.164 -34.617,18.695 -34.617,38.707 0,15.527 9.137,28.961 22.316,35.211l21.039,139.824c2.879,19.227 19.082,33.184 38.523,33.184h91.688c19.441,0 35.645,-13.957 38.523,-33.176l21.605,-143.582c9.703,-7.09 16.023,-18.551 16.023,-31.461zM170.094,185.117h94.816v-27h-62.996v-0.215c-6.008,0 -10.895,-4.887 -10.895,-10.891 0,-6.008 4.887,-10.895 10.895,-10.895h78.73c12.871,0 21.848,-6.602 27.711,-14.508 6.445,6.961 12.629,16.184 12.629,25.402 0,6.121 -4.887,11.102 -10.895,11.102h-7v27h38.816c6.59,0 11.953,5.363 11.953,11.957 0,6.59 -5.363,11.953 -11.953,11.953h-171.813c-6.59,0 -11.953,-5.363 -11.953,-11.953 0,-6.594 5.363,-11.953 11.953,-11.953zM181.324,236.023h25.164l-19.336,19.18 -3.461,-3.441zM190.434,296.566 L203.652,309.723 193.887,319.512zM206.285,274.25 L223.215,257.461 239.57,273.73 222.727,290.613zM239.949,236.023h37.246l-18.551,18.594zM258.715,292.773 L275.867,309.836 258.949,326.668 241.863,309.66zM277.785,273.66 L295.137,256.27 312.355,273.52 295.004,290.789zM327.262,296.777 L323.848,319.48 314.145,309.828zM334.004,251.977 L331.492,254.473 313.078,236.023h23.324zM198.883,352.73 L222.789,328.773 239.813,345.715 208.129,377.25c-3.625,-1.613 -6.305,-4.969 -6.934,-9.152zM258.949,364.762 L272.539,378.285h-27.18zM309.719,377.199 L278.09,345.715 295.008,328.875 318.863,352.605 316.531,368.105c-0.621,4.133 -3.246,7.461 -6.813,9.094zM309.719,377.199" fill="#fff"/>
</svg>