<?xml version="1.0" encoding="UTF-8" standalone="no"?><svg xmlns:android="http://schemas.android.com/apk/res/android" height="64" width="64" xmlns="http://www.w3.org/2000/svg">
  <path d="m3.625,27.554 l-0.517,-4.294a13.17,13.17 0,0 1,0.916 -6.866,12.787 12.787,0 0,1 19.364,-5.189 13.185,13.185 0,0 1,4.226 5.489l1.7,3.977a25.963,25.963 0,0 1,0.157 20.023,1.757 1.757,0 0,1 -2.5,0.846 1.752,1.752 0,0 0,-2.6 1.808l2.879,17.134 -1.932,0.518 -6.068,-16.281a1.752,1.752 0,0 0,-3.159 -0.265,1.757 1.757,0 0,1 -2.59,0.519 25.964,25.964 0,0 1,-9.876 -17.419z" fill="#a1d51c"/>
  <path d="m29.313,20.671 l-1.7,-3.977a13.185,13.185 0,0 0,-4.226 -5.489,12.929 12.929,0 0,0 -4.381,-2.088 14.7,14.7 0,0 0,-1.445 1.617,14.707 14.707,0 0,0 -2.72,6.827l-0.681,4.763a28.981,28.981 0,0 0,0.54 10.961,24.119 24.119,0 0,1 -7.193,-11.685 26.124,26.124 0,0 1,-1 -8.944,12.987 12.987,0 0,0 -2.479,3.743 13.17,13.17 0,0 0,-0.916 6.866l0.517,4.294a25.964,25.964 0,0 0,9.871 17.414,1.757 1.757,0 0,0 2.59,-0.519 1.752,1.752 0,0 1,3.159 0.265l6.069,16.281 1.932,-0.518 -2.886,-17.134a1.752,1.752 0,0 1,2.6 -1.808,1.757 1.757,0 0,0 2.5,-0.846 25.963,25.963 0,0 0,-0.151 -20.023z" fill="#7ab92d"/>
  <path d="m17.83,31.256a1,1 0,0 0,1.386 -1.443l-1,-0.964a12.6,12.6 0,0 0,-9.526 -3.481,1 1,0 1,0 0.129,2 10.582,10.582 0,0 1,8.008 2.928z" fill="#5ba006"/>
  <path d="m19.584,35.642a8.488,8.488 0,0 0,-7.793 -1.808,1 1,0 1,0 0.517,1.932 6.494,6.494 0,0 1,5.961 1.383l2.393,2.089a1,1 0,0 0,1.316 -1.507z" fill="#5ba006"/>
  <path d="m8.167,20.311a6.494,6.494 0,0 1,5.96 1.383l2.165,1.89 0.654,2.439a1,1 0,1 0,1.931 -0.518l-3.051,-11.387a1,1 0,1 0,-1.931 0.518l1.471,5.493a8.484,8.484 0,0 0,-7.717 -1.75,1 1,0 1,0 0.518,1.932z" fill="#5ba006"/>
  <path d="m60.375,27.554 l0.517,-4.294a13.17,13.17 0,0 0,-0.916 -6.866,12.787 12.787,0 0,0 -19.364,-5.189 13.185,13.185 0,0 0,-4.226 5.489l-1.7,3.977a25.963,25.963 0,0 0,-0.157 20.023,1.757 1.757,0 0,0 2.5,0.846 1.752,1.752 0,0 1,2.6 1.808l-2.879,17.134 1.932,0.518 6.068,-16.281a1.752,1.752 0,0 1,3.159 -0.265,1.757 1.757,0 0,0 2.59,0.519 25.964,25.964 0,0 0,9.876 -17.419z" fill="#a1d51c"/>
  <path d="m48,23a23.791,23.791 0,0 1,4.027 -13.726,12.759 12.759,0 0,0 -11.415,1.931 13.185,13.185 0,0 0,-4.226 5.489l-1.7,3.977a25.963,25.963 0,0 0,-0.157 20.023,1.757 1.757,0 0,0 2.5,0.846 1.752,1.752 0,0 1,2.6 1.808l-2.879,17.134 1.932,0.518 6.068,-16.281a1.752,1.752 0,0 1,3.159 -0.265,1.757 1.757,0 0,0 2.59,0.519 25.935,25.935 0,0 0,4.825 -4.9c-4.331,-3.082 -7.324,-9.558 -7.324,-17.073z" fill="#7ab92d"/>
  <path d="m55.31,25.368a12.623,12.623 0,0 0,-9.522 3.481l-0.888,0.851a1,1 0,0 0,1.386 1.443l0.888,-0.854a10.6,10.6 0,0 1,8.008 -2.928,0.989 0.989,0 0,0 1.063,-0.934 1,1 0,0 0,-0.935 -1.059z" fill="#5ba006"/>
  <path d="m52.209,33.834a8.491,8.491 0,0 0,-7.793 1.808l-2.394,2.089a1,1 0,1 0,1.316 1.507l2.393,-2.089a6.5,6.5 0,0 1,5.961 -1.383,1 1,0 1,0 0.517,-1.932z" fill="#5ba006"/>
  <path d="m56.351,18.379a8.484,8.484 0,0 0,-7.717 1.75l1.471,-5.493a1,1 0,1 0,-1.931 -0.518l-3.051,11.387a1,1 0,0 0,0.707 1.225,1 1,0 0,0 1.224,-0.707l0.654,-2.439 2.165,-1.89a6.5,6.5 0,0 1,5.96 -1.383,1 1,0 0,0 0.518,-1.932z" fill="#5ba006"/>
  <path d="m46.839,20.324 l-0.681,-4.763a14.707,14.707 0,0 0,-2.72 -6.827,14.275 14.275,0 0,0 -22.876,0 14.707,14.707 0,0 0,-2.72 6.827l-0.681,4.763a28.973,28.973 0,0 0,7.027 23.346,2.712 2.712,0 0,1 4.812,1.581c0.328,6.7 0.771,15.749 0.771,15.749h4.464s0.443,-9.054 0.771,-15.749a2.712,2.712 0,0 1,4.809 -1.581,28.973 28.973,0 0,0 7.024,-23.346z" fill="#c4f236"/>
  <path d="m42,39c-9.389,0 -17,-10.745 -17,-24a32.093,32.093 0,0 1,1.908 -11.044,14.348 14.348,0 0,0 -6.346,4.778 14.707,14.707 0,0 0,-2.72 6.827l-0.681,4.763a28.973,28.973 0,0 0,7.027 23.346,2.712 2.712,0 0,1 4.812,1.581l0.768,15.749h4.464l0.768,-15.749a2.712,2.712 0,0 1,4.809 -1.581,28.923 28.923,0 0,0 3.413,-4.739 12.149,12.149 0,0 1,-1.222 0.069z" fill="#a1d51c"/>
  <path d="m40.805,17.464a12.6,12.6 0,0 0,-7.8 5.1v-4.855l1.6,-2.386a6.484,6.484 0,0 1,3.943 -2.713,1 1,0 0,0 -0.448,-1.949 8.47,8.47 0,0 0,-5.1 3.469v-5.685a1,1 0,0 0,-2 0v5.683a8.486,8.486 0,0 0,-4.924 -3.428,1 1,0 1,0 -0.488,1.94 6.489,6.489 0,0 1,3.812 2.684l1.6,2.384v4.857a12.6,12.6 0,0 0,-7.8 -5.1,1 1,0 0,0 -0.392,1.961 10.6,10.6 0,0 1,6.977 4.9l1.215,2.017v3.788a8.485,8.485 0,0 0,-7 -3.686,1 1,0 0,0 0,2 6.491,6.491 0,0 1,5.4 2.879l1.6,2.384v3.42a8.486,8.486 0,0 0,-4.924 -3.428,1 1,0 1,0 -0.488,1.94 6.489,6.489 0,0 1,3.812 2.684l1.6,2.384v19.737a1,1 0,0 0,2 0v-19.736l1.6,-2.386a6.484,6.484 0,0 1,3.943 -2.713,1 1,0 0,0 -0.448,-1.949 8.47,8.47 0,0 0,-5.095 3.469v-3.421l1.6,-2.385a6.491,6.491 0,0 1,5.4 -2.879,1 1,0 0,0 0,-2 8.486,8.486 0,0 0,-7 3.687v-3.787l1.22,-2.019a10.6,10.6 0,0 1,6.977 -4.9,1 1,0 0,0 -0.392,-1.961z" fill="#7ab92d"/>
</svg>