<?xml version="1.0" encoding="UTF-8" standalone="no"?><svg xmlns:android="http://schemas.android.com/apk/res/android" height="684.5859" width="684.5859" xmlns="http://www.w3.org/2000/svg">
  <g transform="translate(175.12505, 198.00299)">
    <path d="m9.5,8.5c-3.3,2.4 -6,4.6 -6,4.9 0,0.4 3.1,4.8 6.8,9.9 3.7,5 8.2,11.5 10,14.4 1.8,2.8 5.6,8.7 8.5,12.9l5.3,7.8 -3.4,7c-6.7,13.9 -8.7,19.2 -10.7,28.5 -1.1,5.1 -2.5,10.1 -3,11.1 -0.8,1.6 0,2.2 6.3,4.8l7.2,3.1 1.6,-3.2c0.9,-1.8 2.4,-7.3 3.4,-12.2 0.9,-5 2.6,-10.8 3.7,-12.9 1.1,-2.2 2.6,-5.5 3.2,-7.4l1.2,-3.4 5.5,7.2c2.9,4 6.8,8.9 8.4,11 1.7,2 5.5,7.1 8.7,11.1 3.1,4.1 7.2,9.2 9.1,11.4l3.6,4 5.6,-5.6 5.7,-5.6 -7.2,-8.9c-3.9,-4.9 -8,-10 -9,-11.4 -1.1,-1.4 -3.8,-4.9 -6.2,-7.8 -7,-8.7 -13.8,-18.5 -13.8,-19.9 0,-0.8 1.7,-3.2 3.8,-5.6 2.1,-2.3 5.3,-6.4 7.1,-9 3.6,-5.3 18.6,-20.7 20.1,-20.7 0.6,-0 -0.6,-3.2 -2.5,-7 -1.9,-3.9 -3.9,-7 -4.4,-7 -1,-0 -8.1,5.6 -14.3,11.2 -2,1.8 -6.1,6.7 -9.2,10.8 -5.5,7.4 -9.6,12 -10.6,12 -0.5,-0 -6.2,-8.5 -12,-17.8 -3.2,-5.3 -7.7,-11.7 -10.7,-15.2 -0.7,-0.8 -2.3,-2.7 -3.5,-4.2l-2.3,-2.7z" fill="#000000" fill-opacity="1.0"/>
    <path d="m173,40.7c-3.6,2.4 -4.8,4.1 -7.7,10.3 -2.8,6.1 -8.2,24.1 -8.7,29.2 -0.6,6.2 -1.9,11.8 -2.6,11.8 -1.1,-0 -5.7,-10 -7.9,-17.4 -1.4,-4.5 -2.1,-9.6 -2.1,-15.1 0,-4.5 -0.3,-9.6 -0.6,-11.2l-0.6,-3 -4.9,1.8c-2.7,1.1 -5.4,1.9 -5.9,1.9 -0.6,-0 -1,-1.8 -1,-4l0,-4l-6.4,-0c-3.5,-0 -9.6,0.7 -13.6,1.6 -13.2,3 -17.3,9.4 -20,30.5 -1.7,14.3 0.8,22.4 9.3,29.3 5.3,4.3 12.3,6.7 21.3,7.3 5.8,0.5 7.7,0.2 11.2,-1.6 2.2,-1.1 4.9,-3.1 5.9,-4.4l1.7,-2.4 7.1,6 7,5.9 5.4,-0.6c3,-0.4 6,-1.1 6.7,-1.7 2.5,-2 4.3,-9.5 4.8,-19.7 0.3,-6.4 1.3,-12.4 2.5,-16 1.1,-3.1 2.7,-8.3 3.6,-11.5 0.8,-3.1 2,-5.7 2.4,-5.7 1.2,-0 4.7,10.9 6.1,19 0.7,3.6 0.9,9.2 0.5,12.7 -0.3,3.4 -0.3,8.2 0,10.7 0.8,5 0.3,4.7 11.8,6l4.7,0.6l0,-8.8c0,-9.7 3.1,-28.6 5.4,-33 0.8,-1.6 2.6,-3.6 3.9,-4.5 2.3,-1.5 2.4,-1.5 4.2,2.1 4.6,9.5 5.6,14.5 5.5,25.4l-0.1,10.8l8.1,-0 8,-0l0,-2.8c0,-6.1 3.1,-22.9 5,-26.6 1.3,-2.6 3.4,-4.9 6.1,-6.4l4.1,-2.4 3.8,2.7c8.9,6.2 11.4,12.4 12.4,31.4 0.3,6.7 3.6,19.4 5.4,21.3 0.4,0.3 3.9,-0.7 7.8,-2.4l7.1,-3.1 -2.2,-5.6c-1.5,-3.9 -2.4,-8.9 -2.8,-16.2 -1.1,-18.1 -5.7,-28.7 -15.6,-36.3 -7.2,-5.6 -9.8,-6.6 -16.3,-6.6 -5.8,-0 -14.2,3.7 -18.5,8.2l-2.6,2.7 -2.8,-4.4c-4.4,-7 -12.6,-10 -20.7,-7.7 -1.2,0.4 -4.4,2.6 -7.2,5l-4.9,4.2 -2.2,-4.9c-2.9,-6.8 -7.3,-10.1 -13.6,-10.1 -2.9,-0 -5.8,0.7 -7.3,1.7zM127.4,62.7c0.7,6.6 0.9,24.6 0.3,28.2 -0.5,3.5 -2.7,4.2 -9.2,2.7 -4,-1 -6.7,-2.4 -8.9,-4.5 -2.9,-3 -3.1,-3.6 -3,-10.4 0,-3.9 0.6,-9.7 1.4,-12.7 0.7,-3 1.1,-5.7 0.9,-5.9 -0.8,-0.9 7.8,-2.9 12.8,-3l5.1,-0.1z" fill="#000000" fill-opacity="1.0"/>
    <path d="m192,123.9c-2,1.6 -5.4,6.6 -8,11.5 -2.5,4.7 -4.7,8.6 -5,8.6s-1.6,-2.1 -2.9,-4.6c-6.8,-12.6 -20.1,-16 -29.4,-7.5 -4.6,4.2 -4.8,4.7 -7.3,22.6 -0.3,2.2 -1,6.7 -1.5,10s-0.9,9.7 -0.9,14.2c0,4.6 -0.4,8.3 -0.9,8.3 -2.8,-0 -6.2,-4.6 -8.2,-11.3 -2.4,-7.7 -2.4,-9.8 -1.4,-31l0.7,-13.7 -6.3,-0.2c-16.7,-0.5 -19.3,-0.3 -24.2,2.1 -6.6,3.2 -15.7,11.9 -18.6,17.6 -5.2,10.4 -4.9,27.8 0.6,35.8 3.5,5 12.7,13.3 17.7,15.9 8.1,4.2 19.2,0.5 21.1,-6.9l0.6,-2.5 3.6,3.5c3.8,3.7 12,6.7 18.5,6.7 3,-0 7.8,-2.7 11.8,-6.7 0.3,-0.2 0.8,-7.5 1.2,-16.1 1,-22.8 3,-37.2 5.1,-37.2 2.3,-0 8.9,11.7 11,19.5 1,3.9 1.1,8.5 0.5,20.4 -0.5,8.5 -0.5,15.8 -0.1,16.1 0.8,0.7 12.2,4 13.6,4 1.3,-0 3.7,-5.9 3.7,-9.1 0,-1.7 0.7,-6.8 1.5,-11.3 0.8,-4.4 2.4,-13.5 3.6,-20.1 2.1,-11.7 6.2,-22.6 7.3,-19.5 3.3,9.4 4.8,16.8 5.1,25 0.2,5.2 0.5,10.6 0.8,12 0.2,1.4 0.8,5.5 1.1,9.2l0.7,6.7 5.2,0.6c2.9,0.4 6.8,0.5 8.7,0.3 3.5,-0.3 3.5,-0.3 5.2,-7.8 5.1,-21.6 7,-28.2 10.2,-35.4 3.2,-6.9 3.8,-7.6 5.2,-6.5 2.6,2.1 12.4,25.8 12.4,29.9 0,2.4 5.1,15 6.1,15 0.8,-0 12.7,-5.6 13.6,-6.4 0.2,-0.2 -0.6,-2.5 -1.6,-5.2 -1.1,-2.7 -3.4,-9.6 -5.2,-15.4 -3.3,-10.5 -8.4,-22 -12.1,-27.3 -2.6,-3.6 -8.8,-6.7 -13.6,-6.7 -8.6,-0 -15.1,5.3 -19.3,15.7 -1.2,3 -2.5,5.1 -2.9,4.6 -0.4,-0.4 -1.8,-4.4 -3.1,-8.8 -4.4,-15.6 -7.5,-19.6 -15.9,-20.9 -4,-0.6 -4.9,-0.3 -8,2.3zM108.2,153.7c0.3,7.1 -1.7,22.7 -3.9,31.2l-0.9,3.4 -6.3,-5.9c-5.9,-5.6 -6.4,-6.3 -6.8,-11.1 -0.8,-8 0.3,-12 5,-17 4.3,-4.7 9.2,-8.3 11.4,-8.3 0.8,-0 1.3,2.5 1.5,7.7z" fill="#000000" fill-opacity="1.0"/>
    <path d="m14.7,126.1c-6.4,4.5 -6.4,3.7 -0.4,10.7 1.5,1.9 4,5.2 5.4,7.5s3.9,5.8 5.4,7.7c1.6,1.9 4.5,5.7 6.4,8.3l3.6,4.8 -2.2,3.7c-1.3,2 -4.1,5.7 -6.4,8.2 -5.9,6.5 -9,10.8 -12.3,17.2l-3,5.7 6,4.5c4.2,3.1 6.5,4.3 7.3,3.6 0.6,-0.5 2.4,-3.3 3.8,-6.3 1.5,-2.9 5.6,-8.6 9.2,-12.6 3.6,-4.1 6.5,-7.8 6.5,-8.3 0,-2.1 2.2,0.1 7.7,7.8 11,15.5 14.4,19.5 15.6,18.7 0.7,-0.4 3.5,-2.4 6.4,-4.6l5.2,-3.9 -3.6,-5.1c-1.9,-2.9 -4,-5.7 -4.7,-6.2 -0.6,-0.6 -2,-2.3 -3,-4 -1.1,-1.6 -2.3,-3.4 -2.8,-4 -0.5,-0.5 -2.9,-3.8 -5.3,-7.1l-4.4,-6.2 7.1,-9.3c3.9,-5.2 9.7,-12.6 12.9,-16.5l5.7,-7.1 -5.8,-5.8 -5.8,-5.7 -2.8,3.7c-1.6,2 -4.4,5.6 -6.3,7.9 -1.9,2.2 -5.9,7.4 -8.9,11.5l-5.5,7.5 -2.1,-2.7c-2,-2.5 -4.4,-5.8 -15.3,-20.7 -2.7,-3.6 -5.5,-6.6 -6.3,-6.7s-4.1,1.6 -7.3,3.8z" fill="#000000" fill-opacity="1.0"/>
    <path d="m300,190.6c-1.9,1.3 -5.3,3.3 -7.5,4.4 -6.3,3 -29.6,8.6 -46,10.9 -8.2,1.2 -17.8,2.6 -21.1,3.1 -3.4,0.6 -16.7,1.7 -29.5,2.5 -12.9,0.8 -29.7,2 -37.4,2.5 -7.7,0.6 -19.6,1.5 -26.5,2 -40.1,2.9 -56,4.2 -69,5.5 -8,0.9 -18.2,1.8 -22.8,2.2 -4.5,0.3 -8.2,0.9 -8.2,1.4 0,0.4 -1.6,1.3 -3.5,1.9s-3.5,1.5 -3.5,1.9c0,0.7 -5.1,3 -10.5,4.7 -3.9,1.2 -4.7,4.9 -1.3,6 1.3,0.4 21.5,0.7 45,0.8 23.4,0.1 42.6,0.2 42.5,0.2 -0.1,0.1 -3.8,1.1 -8.2,2.3 -9.7,2.7 -20.8,8.8 -26.7,14.8 -4.8,4.9 -5,3.7 2.5,14.7 5.7,8.3 8.5,8.4 20.9,0.5 4.7,-3 7.5,-3.9 44.8,-13.7 10.7,-2.9 21.6,-5.9 24.2,-6.7 2.5,-0.8 10.2,-2.6 17,-4 6.7,-1.4 14.3,-3.2 16.8,-4s10.6,-2.6 18,-4c12.4,-2.4 36.1,-7.8 62,-14.1 5.8,-1.4 14.6,-3.5 19.5,-4.5 18,-3.9 19.4,-4.2 20.5,-4.9 0.9,-0.6 0,-4.5 -3.5,-14.9 -2.5,-7.7 -4.7,-14.1 -4.8,-14.1 -0.1,0.1 -1.8,1.2 -3.7,2.6z" fill="#000000" fill-opacity="1.0"/>
  </g>
</svg>